<svg width="169" height="27" viewBox="0 0 169 27" fill="none" xmlns="http://www.w3.org/2000/svg">
<g id="Frame" clip-path="url(#clip0_125_16563)">
<g id="&#208;&#161;&#208;&#179;&#209;&#128;&#209;&#131;&#208;&#191;&#208;&#191;&#208;&#184;&#209;&#128;&#208;&#190;&#208;&#178;&#208;&#176;&#209;&#130;&#209;&#140; 9735">
<g id="&#208;&#161;&#208;&#179;&#209;&#128;&#209;&#131;&#208;&#191;&#208;&#191;&#208;&#184;&#209;&#128;&#208;&#190;&#208;&#178;&#208;&#176;&#209;&#130;&#209;&#140; 9730">
<path id="&#208;&#154;&#208;&#190;&#208;&#189;&#209;&#130;&#209;&#131;&#209;&#128; 1962" d="M16.978 25.4899H0.991C0.864248 25.494 0.737961 25.4726 0.619647 25.4269C0.501333 25.3813 0.393407 25.3123 0.302286 25.2241C0.211166 25.1359 0.138711 25.0303 0.0892284 24.9135C0.0397461 24.7967 0.0142469 24.6712 0.0142469 24.5444C0.0142469 24.4176 0.0397461 24.292 0.0892284 24.1753C0.138711 24.0585 0.211166 23.9529 0.302286 23.8647C0.393407 23.7765 0.501333 23.7075 0.619647 23.6618C0.737961 23.6162 0.864248 23.5948 0.991 23.5989H16.978C17.1048 23.5948 17.231 23.6162 17.3494 23.6618C17.4677 23.7075 17.5756 23.7765 17.6667 23.8647C17.7578 23.9529 17.8303 24.0585 17.8798 24.1753C17.9293 24.292 17.9548 24.4176 17.9548 24.5444C17.9548 24.6712 17.9293 24.7967 17.8798 24.9135C17.8303 25.0303 17.7578 25.1359 17.6667 25.2241C17.5756 25.3123 17.4677 25.3813 17.3494 25.4269C17.231 25.4726 17.1048 25.494 16.978 25.4899ZM17.924 1.44189C17.927 1.56426 17.8812 1.6828 17.7969 1.77149C17.7125 1.86017 17.5964 1.91175 17.474 1.91489H16.5C16.3747 1.91436 16.2547 1.86436 16.1661 1.77577C16.0775 1.68718 16.0275 1.56718 16.027 1.44189V0.472891C16.024 0.35052 16.0698 0.231978 16.1541 0.143294C16.2385 0.0546104 16.3546 0.00303437 16.477 -0.000109353H17.468C17.5904 -0.00306417 17.7089 0.0426645 17.7976 0.127036C17.8863 0.211407 17.9379 0.327525 17.941 0.449891C17.941 0.456891 17.941 0.464891 17.941 0.472891L17.924 1.44189ZM1.914 1.44189C1.91347 1.56718 1.86347 1.68718 1.77488 1.77577C1.68629 1.86436 1.56629 1.91436 1.441 1.91489H0.473C0.347715 1.91436 0.227711 1.86436 0.13912 1.77577C0.0505292 1.68718 0.000526416 1.56718 0 1.44189V0.472891C0.000789096 0.347779 0.0509077 0.228031 0.13947 0.139655C0.228033 0.0512801 0.347887 0.00141488 0.473 0.000890574H1.441C1.56629 0.00141699 1.68629 0.0514198 1.77488 0.140011C1.86347 0.228602 1.91347 0.348605 1.914 0.473891V1.44189ZM0.968 15.2419C0.717591 15.2403 0.477885 15.1401 0.300815 14.9631C0.123746 14.786 0.0235731 14.5463 0.0219998 14.2959V3.58089C0.0178771 3.45414 0.0392823 3.32785 0.0849426 3.20954C0.130603 3.09122 0.199586 2.9833 0.287791 2.89218C0.375996 2.80106 0.481622 2.7286 0.598389 2.67912C0.715157 2.62964 0.840681 2.60414 0.9675 2.60414C1.09432 2.60414 1.21984 2.62964 1.33661 2.67912C1.45338 2.7286 1.559 2.80106 1.64721 2.89218C1.73541 2.9833 1.8044 3.09122 1.85006 3.20954C1.89572 3.32785 1.91712 3.45414 1.913 3.58089V14.3009C1.9142 14.4255 1.89055 14.549 1.84344 14.6643C1.79632 14.7796 1.72669 14.8844 1.6386 14.9725C1.55052 15.0606 1.44575 15.1302 1.33044 15.1773C1.21512 15.2244 1.09156 15.2481 0.967 15.2469L0.968 15.2419Z" fill="#00A0DE"/>
<path id="&#208;&#154;&#208;&#190;&#208;&#189;&#209;&#130;&#209;&#131;&#209;&#128; 1963" d="M16.9781 15.245C16.7277 15.2434 16.488 15.1432 16.3109 14.9661C16.1339 14.7891 16.0337 14.5494 16.0321 14.299V3.58096C16.028 3.45421 16.0494 3.32792 16.0951 3.20961C16.1407 3.09129 16.2097 2.98337 16.2979 2.89225C16.3861 2.80113 16.4917 2.72867 16.6085 2.67919C16.7253 2.62971 16.8508 2.60421 16.9776 2.60421C17.1044 2.60421 17.23 2.62971 17.3467 2.67919C17.4635 2.72867 17.5691 2.80113 17.6573 2.89225C17.7455 2.98337 17.8145 3.09129 17.8602 3.20961C17.9058 3.32792 17.9272 3.45421 17.9231 3.58096V14.299C17.9243 14.422 17.9012 14.5441 17.8552 14.6582C17.8092 14.7724 17.7412 14.8763 17.655 14.9642C17.5689 15.052 17.4662 15.122 17.353 15.1702C17.2398 15.2184 17.1182 15.2438 16.9951 15.245H16.9781ZM14.3231 1.91396H3.60311C3.47636 1.91808 3.35007 1.89668 3.23175 1.85102C3.11344 1.80536 3.00551 1.73637 2.91439 1.64817C2.82327 1.55996 2.75082 1.45434 2.70134 1.33757C2.65185 1.2208 2.62635 1.09528 2.62635 0.968461C2.62635 0.841642 2.65185 0.716117 2.70134 0.59935C2.75082 0.482583 2.82327 0.376957 2.91439 0.288752C3.00551 0.200547 3.11344 0.131564 3.23175 0.0859035C3.35007 0.0402432 3.47636 0.0188383 3.60311 0.022961H14.3231C14.5735 0.0245343 14.8132 0.124707 14.9903 0.301776C15.1674 0.478846 15.2675 0.718552 15.2691 0.968961C15.2722 1.09018 15.2513 1.21082 15.2077 1.32397C15.1641 1.43713 15.0987 1.54059 15.0151 1.62844C14.9315 1.71629 14.8315 1.78681 14.7206 1.83598C14.6098 1.88514 14.4903 1.91198 14.3691 1.91496L14.3231 1.91396ZM17.9231 16.437C17.9226 16.3117 17.8726 16.1917 17.784 16.1031C17.6954 16.0145 17.5754 15.9645 17.4501 15.964H16.5041C16.3788 15.9645 16.2588 16.0145 16.1702 16.1031C16.0816 16.1917 16.0316 16.3117 16.0311 16.437V17.405C16.0316 17.5302 16.0816 17.6502 16.1702 17.7388C16.2588 17.8274 16.3788 17.8774 16.5041 17.878H17.4721C17.5974 17.8774 17.7174 17.8274 17.806 17.7388C17.8946 17.6502 17.9446 17.5302 17.9451 17.405L17.9231 16.437ZM1.93611 16.437C1.93906 16.3146 1.89333 16.196 1.80896 16.1074C1.72459 16.0187 1.60847 15.9671 1.48611 15.964H0.495107C0.369822 15.9645 0.249818 16.0145 0.161228 16.1031C0.0726367 16.1917 0.0226339 16.3117 0.0221074 16.437V17.405C0.0191526 17.5273 0.0648813 17.6459 0.149253 17.7346C0.233624 17.8232 0.349741 17.8748 0.472107 17.878H1.46311C1.58839 17.8774 1.7084 17.8274 1.79699 17.7388C1.88558 17.6502 1.93558 17.5302 1.93611 17.405V16.437ZM14.3231 15.965H3.60311C3.47636 15.9608 3.35007 15.9822 3.23175 16.0279C3.11344 16.0736 3.00551 16.1425 2.91439 16.2308C2.82327 16.319 2.75082 16.4246 2.70134 16.5413C2.65185 16.6581 2.62635 16.7836 2.62635 16.9105C2.62635 17.0373 2.65185 17.1628 2.70134 17.2796C2.75082 17.3963 2.82327 17.502 2.91439 17.5902C3.00551 17.6784 3.11344 17.7474 3.23175 17.793C3.35007 17.8387 3.47636 17.8601 3.60311 17.856H14.3231C14.5735 17.8544 14.8132 17.7542 14.9903 17.5771C15.1674 17.4001 15.2675 17.1604 15.2691 16.91C15.2722 16.7887 15.2513 16.6681 15.2077 16.555C15.1641 16.4418 15.0987 16.3383 15.0151 16.2505C14.9315 16.1626 14.8315 16.0921 14.7206 16.0429C14.6098 15.9938 14.4903 15.9669 14.3691 15.964L14.3231 15.965ZM14.3911 15.199C14.1581 15.1947 13.9345 15.1067 13.7611 14.951L2.92311 4.16596C2.75337 3.9967 2.65649 3.76781 2.65313 3.52812C2.64977 3.28844 2.74019 3.05692 2.90511 2.88296C3.07036 2.71465 3.29507 2.61794 3.5309 2.61364C3.76674 2.60934 3.99483 2.69779 4.16611 2.85996L14.9961 13.646C15.1665 13.8146 15.2643 14.0431 15.2686 14.2828C15.2729 14.5225 15.1834 14.7544 15.0191 14.929C14.9384 15.0153 14.8406 15.0838 14.732 15.1303C14.6234 15.1768 14.5063 15.2002 14.3881 15.199H14.3911Z" fill="#00A0DE"/>
<path id="&#208;&#154;&#208;&#190;&#208;&#189;&#209;&#130;&#209;&#131;&#209;&#128; 1964" d="M3.5569 15.1989C3.43891 15.2 3.322 15.1765 3.21355 15.1301C3.1051 15.0836 3.00749 15.0151 2.9269 14.9289C2.76263 14.7543 2.6731 14.5224 2.67739 14.2827C2.68169 14.043 2.77948 13.8145 2.9499 13.6459L13.7799 2.85891C13.9424 2.69481 14.1635 2.60191 14.3944 2.6006C14.6254 2.59929 14.8475 2.68967 15.0119 2.85191L15.0409 2.88191C15.2052 3.05652 15.2947 3.2884 15.2904 3.52809C15.2861 3.76778 15.1883 3.99631 15.0179 4.16491L4.1879 14.9499C4.01459 15.1057 3.7909 15.1938 3.55789 15.1979L3.5569 15.1989ZM32.7389 7.47591H30.1279L30.2179 7.49891H32.4249L32.7399 7.47591H32.7389ZM87.6389 17.7659L89.5529 11.3709L91.4669 17.7659H94.1239L90.8139 7.81291H88.2879L88.2199 8.01291L84.9779 17.7629L87.6389 17.7659ZM72.7099 7.76591H69.7349L66.3569 11.0759V7.76591H63.8569V17.7409H66.3569V14.5009L67.0329 13.7579L70.3199 17.7439H73.4049L68.7209 11.8439L72.7099 7.76591Z" fill="#00A0DE"/>
<path id="&#208;&#154;&#208;&#190;&#208;&#189;&#209;&#130;&#209;&#131;&#209;&#128; 1965" d="M47.24 7.769V8.715C47.24 8.692 47.217 8.692 47.217 8.67C46.8713 8.30551 46.456 8.01407 45.9957 7.81294C45.5353 7.6118 45.0393 7.50505 44.537 7.499H44.447C43.3666 7.49965 42.3168 7.85787 41.4613 8.51778C40.6059 9.17768 39.9929 10.1022 39.718 11.147C39.5536 11.6644 39.47 12.2041 39.47 12.747V12.947C39.5132 14.271 40.0585 15.529 40.9952 16.4658C41.932 17.4025 43.19 17.9478 44.514 17.991C45.342 18.0314 46.1573 17.7759 46.814 17.27C46.966 17.1278 47.1019 16.9691 47.219 16.797V17.743H49.848V7.792L47.236 7.769H47.24ZM47.24 13.984C47.217 14.029 47.195 14.097 47.172 14.142C46.9305 14.6105 46.5663 15.0046 46.1182 15.2822C45.6701 15.5598 45.155 15.7104 44.628 15.718C43.9864 15.7233 43.3639 15.5 42.872 15.088C42.5702 14.8208 42.325 14.4957 42.1511 14.1321C41.9771 13.7685 41.8778 13.3737 41.859 12.971V12.791C41.8607 12.2886 41.9843 11.7942 42.219 11.35C42.4605 10.8815 42.8247 10.4874 43.2728 10.2098C43.7209 9.93219 44.236 9.78157 44.763 9.774C45.4046 9.76869 46.0271 9.99203 46.519 10.404C46.8347 10.6861 47.0877 11.0312 47.262 11.417C47.4223 11.7627 47.514 12.1363 47.532 12.517V12.697C47.5149 13.1392 47.4156 13.5743 47.239 13.98L47.24 13.984ZM80.748 7.837V8.783C80.748 8.76 80.725 8.76 80.725 8.738C80.0254 8.01683 79.0723 7.59676 78.068 7.567H77.978C76.9045 7.57119 75.8622 7.92836 75.0118 8.58344C74.1614 9.23852 73.55 10.1551 73.272 11.192C73.1096 11.7016 73.0259 12.2331 73.024 12.768V12.968C73.0627 14.2882 73.6044 15.5437 74.5384 16.4776C75.4723 17.4115 76.7278 17.9533 78.048 17.992C78.8755 18.0291 79.6898 17.7739 80.348 17.271C80.5001 17.1288 80.6359 16.9701 80.753 16.798V17.744H83.365V7.837H80.748ZM80.748 14.029C80.725 14.074 80.703 14.142 80.68 14.187C80.4373 14.6528 80.0722 15.0437 79.6239 15.3175C79.1757 15.5913 78.6612 15.7377 78.136 15.741C77.4952 15.7419 76.8741 15.519 76.38 15.111C76.0805 14.8468 75.8367 14.5255 75.6627 14.166C75.4888 13.8064 75.3883 13.4158 75.367 13.017V12.837C75.3687 12.3346 75.4923 11.8402 75.727 11.396C75.9672 10.9328 76.3287 10.5436 76.7729 10.2699C77.2171 9.99618 77.7273 9.84829 78.249 9.842C78.8898 9.84106 79.5109 10.0639 80.005 10.472C80.3206 10.7541 80.5737 11.0992 80.748 11.485C80.906 11.8249 80.9976 12.1918 81.018 12.566V12.746C81.022 13.1882 80.9299 13.6259 80.748 14.029ZM37.948 12.385C37.9107 11.6078 37.6942 10.8497 37.3153 10.17C36.9364 9.4903 36.4055 8.90746 35.764 8.467C34.83 7.80208 33.7105 7.4477 32.564 7.454H29.948V4.302H36.095V1.802H27.448V17.702H32.648C32.7684 17.7037 32.8888 17.696 33.008 17.679C34.0556 17.6151 35.061 17.2434 35.8982 16.6105C36.7353 15.9775 37.367 15.1115 37.714 14.121C37.8765 13.6189 37.9601 13.0947 37.962 12.567C37.9642 12.5062 37.9564 12.4454 37.939 12.387L37.948 12.385ZM34.748 13.849C34.5298 14.195 34.2437 14.4932 33.907 14.7254C33.5703 14.9576 33.1899 15.1191 32.789 15.2H29.948V9.931L32.087 9.908H32.763C32.831 9.931 32.921 9.931 32.988 9.953C33.3767 10.0356 33.7445 10.1965 34.069 10.426C34.3722 10.6505 34.6237 10.9377 34.8062 11.2679C34.9888 11.5981 35.0982 11.9638 35.127 12.34V12.502C35.1346 12.9802 35.0014 13.45 34.744 13.853L34.748 13.849ZM61.786 17.402C61.7703 17.3709 61.7614 17.3368 61.76 17.302C61.756 17.2904 61.7495 17.2798 61.741 17.271V17.226C61.6521 16.4033 61.607 15.5765 61.606 14.749V7.634H58.972V12.926C58.9603 13.4927 58.8136 14.0484 58.544 14.547C58.3343 14.8423 58.0577 15.0839 57.7369 15.2521C57.4162 15.4203 57.0602 15.5104 56.698 15.515H56.498C56.1127 15.4737 55.7424 15.3425 55.417 15.132C54.9764 14.8273 54.6513 14.3831 54.494 13.871V13.848C54.4199 13.568 54.3747 13.2812 54.359 12.992C54.3453 12.91 54.3376 12.8271 54.336 12.744C54.201 10.744 54.336 7.655 54.336 7.655L54.268 7.632H51.791V12.902C51.804 13.7208 51.9405 14.533 52.196 15.311C52.3357 15.6687 52.5169 16.0087 52.736 16.324C52.7763 16.3938 52.83 16.455 52.894 16.504C52.9601 16.5649 53.0203 16.6319 53.074 16.704C53.4088 17.0468 53.8063 17.3222 54.245 17.515H54.268C54.8462 17.7523 55.4672 17.8673 56.092 17.853C56.2052 17.8582 56.3186 17.8505 56.43 17.83C56.9542 17.8179 57.469 17.6881 57.9364 17.4503C58.4037 17.2124 58.8116 16.8727 59.13 16.456C59.1231 16.8552 59.2159 17.2497 59.4 17.604H61.832C61.8275 17.5354 61.8123 17.4679 61.787 17.404L61.786 17.402Z" fill="#00A0DE"/>
</g>
<path id="&#208;&#154;&#208;&#190;&#208;&#189;&#209;&#130;&#209;&#131;&#209;&#128; 1966" d="M166.559 14.299C166.329 14.7474 165.981 15.1248 165.552 15.3906C165.124 15.6564 164.631 15.8007 164.127 15.808C163.39 15.7842 162.69 15.4792 162.171 14.9558C161.652 14.4323 161.353 13.73 161.335 12.993V12.813C161.332 12.3126 161.447 11.8186 161.673 11.372C161.893 10.9091 162.24 10.5179 162.673 10.2432C163.106 9.96847 163.608 9.82148 164.12 9.81908C164.633 9.81668 165.136 9.95896 165.571 10.2296C166.007 10.5002 166.357 10.8882 166.582 11.349L166.627 11.439L168.834 10.539L168.789 10.449C168.374 9.45415 167.659 8.61408 166.743 8.0466C165.826 7.47911 164.755 7.2127 163.68 7.28471C162.605 7.35673 161.579 7.76358 160.747 8.44817C159.914 9.13276 159.317 10.0608 159.039 11.102C158.878 11.6428 158.795 12.2037 158.791 12.768V12.968C158.811 14.3548 159.37 15.6795 160.349 16.6622C161.328 17.6448 162.65 18.2084 164.037 18.234C165.029 18.2256 165.998 17.9353 166.831 17.3971C167.664 16.8588 168.327 16.0947 168.743 15.194L168.788 15.104L166.626 14.234L166.559 14.299ZM121.322 8.26396C121.228 8.1921 121.13 8.12533 121.029 8.06396C121.006 8.04096 120.984 8.04096 120.961 8.01896L120.781 7.90596L120.691 7.86096C120.578 7.79296 120.466 7.74796 120.376 7.70296C120.331 7.67996 120.308 7.67996 120.263 7.65796C120.204 7.63157 120.144 7.60886 120.083 7.58996C120.044 7.57899 120.006 7.5639 119.97 7.54496H119.947C119.857 7.52196 119.767 7.47696 119.699 7.45496C119.645 7.44299 119.593 7.42796 119.541 7.40996C119.496 7.38696 119.428 7.38696 119.383 7.36496C119.309 7.34556 119.234 7.33053 119.158 7.31996C119.113 7.31996 119.045 7.29696 119 7.29696C118.919 7.27815 118.835 7.27041 118.752 7.27396H118.639C118.526 7.27396 118.439 7.25096 118.324 7.25096H118.301C118.166 7.24736 118.03 7.25506 117.896 7.27396H117.828C117.715 7.29696 117.603 7.29696 117.49 7.31896L117.4 7.34196L117.085 7.40996L117.017 7.43296C116.904 7.45596 116.792 7.50096 116.679 7.52296L116.634 7.54596L116.274 7.70396C115.121 8.23401 114.19 9.14964 113.64 10.293L113.595 10.383C113.491 10.6108 113.401 10.8446 113.325 11.083C113.164 11.6238 113.081 12.1847 113.077 12.749V12.949C113.098 13.4049 113.165 13.8575 113.277 14.3L113.299 14.413C113.369 14.6351 113.452 14.8531 113.547 15.066C113.57 15.111 113.592 15.134 113.592 15.179L113.637 15.269C113.744 15.4793 113.864 15.6824 113.997 15.877L114.042 15.922L114.47 16.462L114.515 16.507C114.562 16.5651 114.615 16.6181 114.673 16.665L114.696 16.688C114.796 16.7912 114.901 16.889 115.011 16.981C115.034 17.004 115.056 17.026 115.079 17.026C115.124 17.071 115.192 17.116 115.237 17.161L115.282 17.184C115.395 17.252 115.482 17.342 115.597 17.409L115.665 17.454L115.845 17.567L115.913 17.612C116.026 17.657 116.113 17.725 116.228 17.77C116.273 17.793 116.296 17.793 116.341 17.815C116.399 17.8413 116.46 17.864 116.521 17.883C116.567 17.8945 116.612 17.9096 116.656 17.928C116.746 17.951 116.836 17.996 116.904 18.018C116.957 18.0299 117.01 18.0449 117.062 18.063C117.107 18.086 117.175 18.086 117.22 18.108C117.294 18.1274 117.369 18.1424 117.445 18.153C117.49 18.153 117.558 18.176 117.603 18.176C117.684 18.1947 117.768 18.2025 117.851 18.199H117.964C118.077 18.199 118.164 18.222 118.302 18.222C118.437 18.2255 118.573 18.2179 118.707 18.199H118.775C118.889 18.1952 119.002 18.1801 119.113 18.154L119.203 18.131L119.518 18.063L119.586 18.04C119.699 18.017 119.811 17.972 119.924 17.95L119.992 17.927L120.33 17.792H120.353C121.51 17.2685 122.444 16.3509 122.987 15.203L123.032 15.113L120.645 14.122L120.6 14.212C120.366 14.6559 120.017 15.0283 119.589 15.2899C119.16 15.5515 118.67 15.6925 118.168 15.698C117.577 15.7061 117.003 15.5082 116.542 15.1382C116.082 14.7683 115.765 14.2494 115.646 13.671H123.187V13.581C123.3 12.748 123.412 9.84296 121.318 8.26696L121.322 8.26396ZM120.822 11.687H115.822C115.867 11.574 115.912 11.487 115.957 11.372C116.182 10.9113 116.531 10.5221 116.964 10.2478C117.397 9.97345 117.898 9.82465 118.411 9.81796C118.784 9.81196 119.153 9.88881 119.492 10.043C120.131 10.4004 120.608 10.9886 120.827 11.687H120.822ZM109.654 12.787L109.609 12.877C109.254 13.6079 108.705 14.2275 108.022 14.6683C107.339 15.109 106.548 15.3542 105.736 15.377C103.214 15.377 101.165 12.968 101.165 9.99496C101.165 7.02196 103.214 4.61296 105.736 4.61296C106.695 4.65666 107.617 4.99924 108.372 5.59276C109.127 6.18627 109.678 7.00101 109.947 7.92296L109.992 8.01296L112.627 6.88696L112.582 6.79696C112.094 5.35066 111.174 4.08915 109.945 3.18308C108.717 2.27701 107.24 1.77011 105.714 1.73096C101.614 1.73096 98.283 5.42396 98.283 9.97196C98.283 14.52 101.615 18.213 105.714 18.213C107.052 18.1786 108.357 17.7813 109.487 17.0634C110.617 16.3455 111.531 15.334 112.131 14.137L112.221 13.979V13.956L109.654 12.787ZM135.147 11.214C134.852 10.1269 134.212 9.16539 133.322 8.47474C132.432 7.7841 131.342 7.40191 130.216 7.38596H130.036C129.049 7.41692 128.107 7.80045 127.379 8.46696V7.65596H124.452V23.868H127.379V17.383C127.454 17.4725 127.537 17.5554 127.627 17.631H127.65C128.344 18.1672 129.206 18.4388 130.082 18.397C131.476 18.3615 132.804 17.7933 133.793 16.809C134.781 15.8247 135.355 14.4992 135.396 13.105V12.905C135.416 12.3316 135.332 11.7592 135.148 11.216L135.147 11.214ZM128.122 10.538C128.62 10.1366 129.238 9.9147 129.878 9.90796C130.405 9.91455 130.921 10.0648 131.369 10.3425C131.817 10.6201 132.181 11.0148 132.422 11.484C132.654 11.9373 132.778 12.4386 132.782 12.948V13.128C132.761 13.5302 132.661 13.9242 132.487 14.2875C132.313 14.6508 132.069 14.9762 131.769 15.245C131.271 15.6463 130.652 15.8682 130.013 15.875C129.486 15.8684 128.97 15.7181 128.522 15.4405C128.074 15.1628 127.71 14.7681 127.469 14.299C127.447 14.254 127.424 14.186 127.401 14.141C127.219 13.7298 127.127 13.2846 127.131 12.835V12.655C127.154 12.2751 127.246 11.9025 127.401 11.555C127.565 11.1689 127.811 10.8232 128.122 10.542V10.538ZM146.338 14.438C146.332 14.1212 146.264 13.8088 146.136 13.5188C146.009 13.2289 145.825 12.9672 145.595 12.749L145.572 12.726C145.376 12.537 145.165 12.3638 144.942 12.208L145.1 11.983C145.34 11.7813 145.532 11.5297 145.665 11.2457C145.797 10.9617 145.866 10.6522 145.866 10.339C145.79 9.67991 145.496 9.06507 145.031 8.59191C144.566 8.11875 143.957 7.81435 143.299 7.72696L142.443 7.68196H142.308L136.746 7.70496V17.856H139.471L140.822 17.833H142.916C143.619 17.7965 144.297 17.5609 144.871 17.1536C145.445 16.7464 145.891 16.1843 146.158 15.533C146.272 15.2072 146.333 14.8651 146.338 14.52V14.438ZM143.501 14.843C143.48 15.0471 143.398 15.24 143.265 15.3967C143.132 15.5533 142.956 15.6663 142.758 15.721C142.713 15.744 142.645 15.744 142.578 15.766C142.333 15.8088 142.084 15.8316 141.835 15.834H139.606V13.443H141.745C142.055 13.4388 142.365 13.469 142.668 13.533H142.691C142.714 13.533 142.714 13.533 142.736 13.556C142.758 13.579 142.804 13.579 142.849 13.601L142.871 13.624C142.893 13.647 142.916 13.647 142.961 13.669C143.103 13.7504 143.224 13.8642 143.314 14.0011C143.404 14.138 143.461 14.2942 143.479 14.457V14.657C143.479 14.657 143.524 14.816 143.501 14.834V14.843ZM142.826 11.285C142.698 11.3435 142.561 11.3816 142.421 11.398H139.587V9.70496H142.447C142.541 9.71959 142.633 9.75001 142.717 9.79496C142.852 9.86062 142.969 9.95908 143.056 10.0814C143.143 10.2036 143.199 10.3458 143.217 10.495C143.248 10.6501 143.227 10.8112 143.158 10.9535C143.089 11.0958 142.975 11.2115 142.834 11.283L142.826 11.285ZM157.887 17.766C157.859 17.71 157.844 17.6485 157.842 17.586C157.844 17.5736 157.842 17.5611 157.838 17.5493C157.834 17.5375 157.828 17.5268 157.819 17.518L157.797 17.405C157.707 16.842 157.684 15.761 157.662 14.951V7.72396H154.827V13.124C154.815 13.6735 154.677 14.2129 154.422 14.7C154.218 14.982 153.951 15.2124 153.642 15.3727C153.333 15.533 152.991 15.6187 152.643 15.623H152.463C152.092 15.5958 151.735 15.4716 151.427 15.263C151.018 14.9655 150.711 14.5488 150.549 14.07V14.047C150.483 13.7806 150.438 13.5094 150.414 13.236V13.213C150.414 13.123 150.391 13.055 150.391 13.013V12.968C150.256 10.987 150.391 7.92396 150.391 7.87896V7.74396H147.621V13.126C147.64 13.9518 147.776 14.7707 148.026 15.558C148.177 15.9221 148.366 16.2693 148.589 16.594C148.635 16.6659 148.688 16.7329 148.747 16.794C148.813 16.8549 148.873 16.9219 148.927 16.994C149.274 17.3489 149.687 17.632 150.143 17.827H150.165C150.742 18.0672 151.364 18.1824 151.989 18.165H152.034C152.147 18.1702 152.261 18.1624 152.372 18.142C152.869 18.1241 153.358 18.0082 153.81 17.8009C154.262 17.5936 154.669 17.299 155.007 16.934C155.002 17.2723 155.105 17.6035 155.3 17.88L155.323 17.903H157.935L157.89 17.768L157.887 17.766Z" fill="#3D3834"/>
<g id="&#208;&#161;&#208;&#179;&#209;&#128;&#209;&#131;&#208;&#191;&#208;&#191;&#208;&#184;&#209;&#128;&#208;&#190;&#208;&#178;&#208;&#176;&#209;&#130;&#209;&#140; 9734">
<path id="&#208;&#154;&#208;&#190;&#208;&#189;&#209;&#130;&#209;&#131;&#209;&#128; 1967" d="M58.2959 4.93091C58.1092 5.17459 57.8689 5.37201 57.5936 5.50788C57.3183 5.64375 57.0154 5.71442 56.7084 5.71442C56.4014 5.71442 56.0985 5.64375 55.8233 5.50788C55.548 5.37201 55.3076 5.17459 55.1209 4.93091L53.7919 5.65191C54.046 6.21397 54.4563 6.69116 54.9739 7.02664C55.4916 7.36213 56.0947 7.54179 56.7115 7.54421C57.3283 7.54663 57.9329 7.37172 58.4531 7.04031C58.9734 6.7089 59.3874 6.23495 59.6459 5.67491L58.2959 4.93091ZM29.6319 23.4629H28.8659V25.4449H28.1229V23.4629H27.3579V22.8309H29.6579V23.4609L29.6319 23.4629ZM31.2529 22.8329H31.9959V23.2159C32.084 23.0819 32.2046 22.9724 32.3464 22.8976C32.4882 22.8227 32.6466 22.785 32.8069 22.7879C32.976 22.7923 33.1423 22.8315 33.2955 22.903C33.4488 22.9746 33.5856 23.0769 33.6976 23.2037C33.8095 23.3304 33.8941 23.4789 33.9461 23.6398C33.9981 23.8007 34.0165 23.9706 33.9999 24.1389C34.0185 24.3076 34.0016 24.4783 33.9503 24.64C33.899 24.8018 33.8145 24.9511 33.7022 25.0782C33.5899 25.2054 33.4522 25.3078 33.298 25.3787C33.1439 25.4495 32.9766 25.4874 32.8069 25.4899C32.6512 25.4936 32.4969 25.4609 32.3561 25.3944C32.2153 25.3279 32.0919 25.2295 31.9959 25.1069V26.2309H31.2579L31.2529 22.8329ZM33.2529 24.1389C33.2364 24.0181 33.1855 23.9047 33.1062 23.8121C33.027 23.7195 32.9228 23.6516 32.806 23.6166C32.6893 23.5816 32.5649 23.581 32.4478 23.6148C32.3307 23.6485 32.2258 23.7153 32.1456 23.8071C32.0654 23.8989 32.0133 24.0118 31.9955 24.1324C31.9778 24.253 31.9951 24.3761 32.0454 24.4871C32.0958 24.5981 32.177 24.6923 32.2794 24.7584C32.3818 24.8245 32.501 24.8597 32.6229 24.8599C32.7127 24.8569 32.8008 24.8356 32.882 24.7971C32.9631 24.7586 33.0354 24.7039 33.0945 24.6362C33.1536 24.5686 33.1981 24.4896 33.2254 24.404C33.2526 24.3185 33.262 24.2282 33.2529 24.1389Z" fill="#00A0DE"/>
<g id="&#208;&#161;&#208;&#179;&#209;&#128;&#209;&#131;&#208;&#191;&#208;&#191;&#208;&#184;&#209;&#128;&#208;&#190;&#208;&#178;&#208;&#176;&#209;&#130;&#209;&#140; 9731">
<path id="B" d="M35.599 24.6779C35.599 24.1149 36.027 23.8449 36.657 23.8449C36.8723 23.8415 37.0863 23.8799 37.287 23.9579V23.9129C37.287 23.5979 37.107 23.4399 36.724 23.4399C36.4771 23.4368 36.232 23.4827 36.003 23.5749L35.823 23.0119C36.1399 22.8655 36.4872 22.7969 36.836 22.8119C36.9944 22.8006 37.1535 22.8206 37.3042 22.8709C37.4549 22.9211 37.5941 23.0007 37.714 23.1049C37.8174 23.2163 37.8967 23.3476 37.9471 23.491C37.9975 23.6343 38.0179 23.7864 38.007 23.9379V25.4469H37.286V25.1539C37.1879 25.2652 37.0663 25.3532 36.93 25.4117C36.7938 25.4701 36.6462 25.4976 36.498 25.4919C36.3841 25.5055 36.2686 25.4945 36.1592 25.4598C36.0499 25.4251 35.9492 25.3674 35.864 25.2906C35.7788 25.2138 35.711 25.1197 35.6651 25.0145C35.6192 24.9094 35.5963 24.7956 35.598 24.6809L35.599 24.6779ZM37.288 24.5199V24.3849C37.1395 24.3185 36.9775 24.2877 36.815 24.2949C36.5 24.2949 36.297 24.4299 36.297 24.6549C36.297 24.8799 36.455 24.9699 36.702 24.9699C37.063 24.9709 37.288 24.7909 37.288 24.5199Z" fill="#00A0DE"/>
</g>
<path id="&#208;&#154;&#208;&#190;&#208;&#189;&#209;&#130;&#209;&#131;&#209;&#128; 1968" d="M42.242 25.444H41.499V24.453H40.599V25.444H39.855V22.832H40.598V23.845H41.498V22.832H42.241L42.242 25.444ZM43.998 24.138C43.996 23.9583 44.0304 23.78 44.0991 23.6139C44.1678 23.4478 44.2694 23.2973 44.3977 23.1715C44.5261 23.0457 44.6786 22.9471 44.846 22.8817C45.0134 22.8163 45.1923 22.7855 45.372 22.791C45.5675 22.7822 45.7625 22.8182 45.942 22.8962C46.1216 22.9742 46.2809 23.0921 46.408 23.241L45.98 23.669C45.9034 23.5851 45.8092 23.5193 45.704 23.4764C45.5988 23.4335 45.4854 23.4146 45.372 23.421C45.2832 23.4269 45.1965 23.4502 45.1168 23.4896C45.037 23.529 44.9659 23.5838 44.9073 23.6508C44.8488 23.7177 44.8041 23.7956 44.7757 23.8799C44.7473 23.9642 44.7359 24.0533 44.742 24.142C44.7332 24.2332 44.7436 24.3251 44.7724 24.412C44.8012 24.4989 44.8478 24.5789 44.9093 24.6467C44.9707 24.7146 45.0457 24.7689 45.1293 24.8061C45.2129 24.8434 45.3034 24.8627 45.395 24.863C45.6247 24.854 45.8422 24.7574 46.003 24.593L46.431 25.021C46.2468 25.2307 46.0037 25.38 45.7335 25.4495C45.4632 25.519 45.1783 25.5055 44.9158 25.4108C44.6533 25.316 44.4254 25.1444 44.2619 24.9183C44.0984 24.6921 44.0068 24.422 43.999 24.143L43.998 24.138ZM50.483 25.444H49.74V23.462H48.84V25.444H48.097V22.832H50.461V25.444H50.483ZM52.239 24.138C52.2422 23.9562 52.2815 23.7768 52.3547 23.6103C52.4279 23.4439 52.5334 23.2936 52.6651 23.1682C52.7969 23.0429 52.9523 22.945 53.1222 22.8802C53.2921 22.8155 53.4732 22.7852 53.655 22.791C53.8826 22.7816 54.1088 22.8303 54.3123 22.9326C54.5158 23.0349 54.6899 23.1873 54.8181 23.3756C54.9463 23.5639 55.0244 23.7817 55.0451 24.0085C55.0657 24.2354 55.0281 24.4637 54.936 24.672C54.8261 24.923 54.6435 25.1354 54.4118 25.2817C54.1801 25.4281 53.9099 25.5017 53.636 25.493C53.4535 25.5036 53.2709 25.4762 53.0995 25.4127C52.9281 25.3492 52.7718 25.2509 52.6403 25.124C52.5088 24.9971 52.405 24.8443 52.3354 24.6753C52.2658 24.5063 52.2319 24.3247 52.236 24.142L52.239 24.138ZM54.333 24.138C54.3376 24.0459 54.3235 23.9538 54.2918 23.8672C54.26 23.7806 54.2111 23.7013 54.148 23.6341C54.0849 23.5668 54.0089 23.5129 53.9246 23.4756C53.8402 23.4383 53.7492 23.4184 53.657 23.417C53.5637 23.4147 53.4709 23.4321 53.3848 23.4681C53.2987 23.5041 53.2212 23.5579 53.1574 23.626C53.0936 23.6941 53.0448 23.7749 53.0144 23.8632C52.984 23.9514 52.9726 24.0451 52.981 24.138C52.9764 24.2301 52.9904 24.3222 53.0222 24.4088C53.054 24.4954 53.1029 24.5747 53.166 24.642C53.2291 24.7093 53.305 24.7632 53.3894 24.8004C53.4738 24.8377 53.5648 24.8577 53.657 24.859C53.7503 24.8614 53.843 24.844 53.9291 24.8079C54.0152 24.7719 54.0927 24.7181 54.1566 24.65C54.2204 24.5819 54.2691 24.5011 54.2995 24.4129C54.3299 24.3246 54.3413 24.231 54.333 24.138ZM56.81 22.832H57.553V23.215C57.6411 23.081 57.7616 22.9715 57.9034 22.8967C58.0452 22.8218 58.2037 22.7841 58.364 22.787C58.533 22.7914 58.6994 22.8306 58.8526 22.9022C59.0058 22.9737 59.1427 23.076 59.2546 23.2028C59.3666 23.3295 59.4512 23.478 59.5032 23.6389C59.5552 23.7998 59.5735 23.9697 59.557 24.138C59.5755 24.3067 59.5586 24.4774 59.5074 24.6391C59.4561 24.8009 59.3716 24.9502 59.2593 25.0774C59.1469 25.2046 59.0093 25.3069 58.8551 25.3778C58.7009 25.4487 58.5337 25.4865 58.364 25.489C58.2083 25.4927 58.0539 25.46 57.9131 25.3935C57.7723 25.327 57.649 25.2286 57.553 25.106V26.232H56.81V22.832ZM58.81 24.138C58.7938 24.0166 58.743 23.9025 58.6637 23.8092C58.5843 23.7159 58.4797 23.6475 58.3625 23.6122C58.2452 23.5768 58.1203 23.576 58.0026 23.6098C57.8849 23.6436 57.7794 23.7107 57.6989 23.8029C57.6183 23.8951 57.566 24.0086 57.5483 24.1298C57.5305 24.2509 57.5481 24.3747 57.5989 24.4861C57.6496 24.5975 57.7314 24.692 57.8345 24.7581C57.9376 24.8243 58.0575 24.8593 58.18 24.859C58.2697 24.8561 58.3579 24.8347 58.439 24.7962C58.5202 24.7577 58.5925 24.703 58.6516 24.6354C58.7107 24.5677 58.7552 24.4887 58.7825 24.4031C58.8097 24.3176 58.8191 24.2273 58.81 24.138ZM63.246 23.462H62.48V25.444H61.737V23.462H60.971V22.832H63.271V23.462H63.246ZM67.254 25.444H66.511V24.453H65.611V25.444H64.868V22.832H65.611V23.845H66.511V22.832H67.254V25.444Z" fill="#00A0DE"/>
<g id="&#208;&#161;&#208;&#179;&#209;&#128;&#209;&#131;&#208;&#191;&#208;&#191;&#208;&#184;&#209;&#128;&#208;&#190;&#208;&#178;&#208;&#176;&#209;&#130;&#209;&#140; 9732">
<path id="B_2" d="M68.9918 24.6779C68.9918 24.1149 69.4198 23.8449 70.0498 23.8449C70.2651 23.8415 70.4791 23.8799 70.6798 23.9579V23.9129C70.6798 23.5979 70.4998 23.4399 70.1168 23.4399C69.8699 23.4368 69.6248 23.4827 69.3958 23.5749L69.2158 23.0119C69.5327 22.8655 69.88 22.7969 70.2288 22.8119C70.3872 22.8006 70.5464 22.8206 70.697 22.8709C70.8477 22.9211 70.987 23.0007 71.1068 23.1049C71.2102 23.2162 71.2896 23.3476 71.34 23.4909C71.3905 23.6342 71.4108 23.7864 71.3998 23.9379V25.4469H70.6788V25.1539C70.5807 25.2652 70.4592 25.3532 70.3229 25.4117C70.1866 25.4701 70.039 25.4976 69.8908 25.4919C69.7769 25.5055 69.6614 25.4945 69.5521 25.4598C69.4427 25.4251 69.3421 25.3674 69.2568 25.2906C69.1716 25.2138 69.1038 25.1197 69.0579 25.0145C69.012 24.9094 68.9891 24.7956 68.9908 24.6809L68.9918 24.6779ZM70.6808 24.5199V24.3849C70.5323 24.3185 70.3703 24.2877 70.2078 24.2949C69.8928 24.2949 69.6898 24.4299 69.6898 24.6549C69.6898 24.8799 69.8478 24.9699 70.0948 24.9699C70.4558 24.9709 70.6808 24.7909 70.6808 24.5199Z" fill="#00A0DE"/>
</g>
<path id="&#208;&#154;&#208;&#190;&#208;&#189;&#209;&#130;&#209;&#131;&#209;&#128; 1969" d="M75.545 25.444H74.8229V24.611H74.4229L73.8829 25.444H73.0229L73.6979 24.4759C73.5339 24.4221 73.3921 24.3158 73.2945 24.1734C73.1969 24.031 73.1489 23.8604 73.158 23.688C73.158 23.17 73.5409 22.8099 74.2159 22.8099H75.5899V25.444H75.545ZM74.8239 24.07V23.417H74.3239C74.0539 23.417 73.8959 23.5299 73.8959 23.7549C73.8959 23.9799 74.0539 24.07 74.3239 24.07H74.8239ZM80.1159 22.832H80.8589V23.913L81.782 22.832H82.6379L81.67 23.913L82.7509 25.444H81.873L81.1729 24.453L80.835 24.813V25.443H80.0919V22.831L80.1159 22.832ZM84.0339 24.138C84.037 23.9559 84.0763 23.7762 84.1496 23.6095C84.2228 23.4427 84.3285 23.2923 84.4604 23.1668C84.5924 23.0413 84.7481 22.9434 84.9183 22.8787C85.0885 22.814 85.2699 22.7838 85.4519 22.79C85.6334 22.7834 85.8144 22.8134 85.984 22.8784C86.1536 22.9433 86.3084 23.0418 86.4391 23.1679C86.5698 23.294 86.6737 23.4452 86.7446 23.6124C86.8156 23.7796 86.8521 23.9593 86.852 24.1409C86.8493 24.3234 86.8102 24.5034 86.7371 24.6706C86.664 24.8377 86.5583 24.9886 86.4261 25.1144C86.294 25.2402 86.1381 25.3384 85.9676 25.4032C85.7971 25.4681 85.6153 25.4982 85.433 25.492C85.2505 25.5025 85.0678 25.4751 84.8965 25.4116C84.7251 25.3481 84.5687 25.2498 84.4372 25.1229C84.3057 24.996 84.2019 24.8432 84.1323 24.6742C84.0627 24.5052 84.0289 24.3237 84.033 24.1409L84.0339 24.138ZM86.128 24.138C86.1325 24.0458 86.1185 23.9537 86.0867 23.8672C86.0549 23.7806 86.006 23.7013 85.943 23.634C85.8799 23.5667 85.8039 23.5128 85.7195 23.4755C85.6352 23.4382 85.5442 23.4183 85.4519 23.417C85.3586 23.4146 85.2659 23.432 85.1798 23.468C85.0937 23.504 85.0162 23.5579 84.9524 23.626C84.8885 23.694 84.8398 23.7748 84.8094 23.8631C84.779 23.9513 84.7676 24.045 84.7759 24.138C84.7714 24.2301 84.7854 24.3222 84.8172 24.4087C84.849 24.4953 84.8979 24.5746 84.9609 24.6419C85.024 24.7092 85.1 24.7631 85.1844 24.8004C85.2687 24.8377 85.3597 24.8576 85.4519 24.859C85.5447 24.8593 85.6365 24.8405 85.7216 24.8038C85.8068 24.7671 85.8835 24.7133 85.9469 24.6456C86.0104 24.578 86.0592 24.498 86.0903 24.4106C86.1214 24.3233 86.1343 24.2305 86.128 24.138ZM88.6049 22.832H89.348L90.0479 23.9319L90.769 22.832H91.512V25.444H90.769V23.868L90.0479 24.9489L89.3229 23.8899V25.444H88.602V22.832H88.6049ZM95.765 25.444H95.0229V23.4619H94.123V25.444H93.3799V22.832H95.7669V25.444H95.765Z" fill="#00A0DE"/>
<g id="&#208;&#161;&#208;&#179;&#209;&#128;&#209;&#131;&#208;&#191;&#208;&#191;&#208;&#184;&#209;&#128;&#208;&#190;&#208;&#178;&#208;&#176;&#209;&#130;&#209;&#140; 9733">
<path id="B_3" d="M97.4989 24.6779C97.4989 24.1149 97.9269 23.8449 98.5569 23.8449C98.7722 23.8415 98.9862 23.8799 99.1869 23.9579V23.9129C99.1869 23.5979 99.0069 23.4399 98.6239 23.4399C98.377 23.4368 98.1319 23.4827 97.9029 23.5749L97.7229 23.0119C98.0398 22.8655 98.3871 22.7969 98.7359 22.8119C98.8943 22.8006 99.0535 22.8206 99.2041 22.8709C99.3548 22.9211 99.494 23.0007 99.6139 23.1049C99.7173 23.2163 99.7966 23.3476 99.847 23.491C99.8974 23.6343 99.9178 23.7864 99.9069 23.9379V25.4469H99.1859V25.1539C99.0878 25.2652 98.9662 25.3532 98.8299 25.4117C98.6937 25.4701 98.5461 25.4976 98.3979 25.4919C98.284 25.5055 98.1685 25.4945 98.0591 25.4598C97.9498 25.4251 97.8491 25.3674 97.7639 25.2906C97.6787 25.2138 97.6109 25.1197 97.565 25.0145C97.5191 24.9094 97.4962 24.7956 97.4979 24.6809L97.4989 24.6779ZM99.1879 24.5199V24.3849C99.0394 24.3185 98.8774 24.2877 98.7149 24.2949C98.3999 24.2949 98.1969 24.4299 98.1969 24.6549C98.1969 24.8799 98.3549 24.9699 98.6019 24.9699C98.9629 24.9709 99.1879 24.7909 99.1879 24.5199Z" fill="#00A0DE"/>
</g>
<path id="&#208;&#154;&#208;&#190;&#208;&#189;&#209;&#130;&#209;&#131;&#209;&#128; 1970" d="M104.141 25.4438H103.398V24.4528H102.498V25.4438H101.754V22.8318H102.497V23.8448H103.397V22.8318H104.14L104.141 25.4438ZM108.441 25.4438H107.721V23.9348L106.708 25.4438H106.008V22.8318H106.729V24.3628L107.742 22.8318H108.442L108.441 25.4438ZM112.629 25.4438H111.886V24.6098H111.481L110.941 25.4428H110.085L110.761 24.4748C110.597 24.421 110.455 24.3147 110.357 24.1723C110.26 24.0299 110.212 23.8593 110.221 23.6868C110.221 23.1688 110.604 22.8088 111.279 22.8088H112.654L112.629 25.4438ZM111.886 24.0698V23.4168H111.386C111.116 23.4168 110.958 23.5298 110.958 23.7548C110.958 23.9798 111.116 24.0698 111.386 24.0698H111.886Z" fill="#00A0DE"/>
</g>
</g>
</g>
<defs>
<clipPath id="clip0_125_16563">
<rect width="168.833" height="26.233" fill="white"/>
</clipPath>
</defs>
</svg>
