<svg width="80" height="80" viewBox="0 0 80 80" fill="none" xmlns="http://www.w3.org/2000/svg">
<g id="icon / product category" clip-path="url(#clip0_1261_50551)">
<g id="Group">
<path id="Vector" d="M37.6999 20.9999H39.9999V59.1999H37.6999V55.3999C37.6999 54.9999 37.2999 54.5999 36.8999 54.5999H34.5999C33.2999 54.5999 32.2999 53.5999 32.2999 52.2999V27.8999C32.2999 26.6999 33.2999 25.5999 34.5999 25.5999H36.8999C37.2999 25.5999 37.6999 25.1999 37.6999 24.7999V20.9999ZM36.9999 19.3999C36.5999 19.3999 36.1999 19.7999 36.1999 20.1999V23.9999H34.6999C32.5999 23.9999 30.7999 25.6999 30.7999 27.7999V52.2999C30.7999 54.3999 32.4999 56.0999 34.6999 56.0999H36.1999V59.8999C36.1999 60.2999 36.5999 60.6999 36.9999 60.6999H40.8999C41.2999 60.6999 41.6999 60.2999 41.6999 59.8999V20.1999C41.6999 19.7999 41.2999 19.3999 40.8999 19.3999C40.7999 19.3999 36.9999 19.3999 36.9999 19.3999Z" fill="#4E4B66" stroke="#4E4B66" stroke-width="0.6158" stroke-miterlimit="10"/>
<path id="Vector_2" d="M37.6999 20.9999H39.9999V59.1999H37.6999V55.3999C37.6999 54.9999 37.2999 54.5999 36.8999 54.5999H34.5999C33.2999 54.5999 32.2999 53.5999 32.2999 52.2999V27.8999C32.2999 26.6999 33.2999 25.5999 34.5999 25.5999H36.8999C37.2999 25.5999 37.6999 25.1999 37.6999 24.7999V20.9999ZM36.9999 19.3999C36.5999 19.3999 36.1999 19.7999 36.1999 20.1999V23.9999H34.6999C32.5999 23.9999 30.7999 25.6999 30.7999 27.7999V52.2999C30.7999 54.3999 32.4999 56.0999 34.6999 56.0999H36.1999V59.8999C36.1999 60.2999 36.5999 60.6999 36.9999 60.6999H40.8999C41.2999 60.6999 41.6999 60.2999 41.6999 59.8999V20.1999C41.6999 19.7999 41.2999 19.3999 40.8999 19.3999C40.7999 19.3999 36.9999 19.3999 36.9999 19.3999Z" fill="#4E4B66" stroke="#4E4B66" stroke-width="0.6158" stroke-miterlimit="10"/>
<path id="Vector_3" d="M37 27H31.6V28.6H37V27Z" fill="#4E4B66" stroke="#4E4B66" stroke-width="0.6158" stroke-miterlimit="10"/>
<path id="Vector_4" d="M37 27H31.6V28.6H37V27Z" fill="#4E4B66" stroke="#4E4B66" stroke-width="0.6158" stroke-miterlimit="10"/>
<path id="Vector_5" d="M37 30.2H31.6V31.7999H37V30.2Z" fill="#4E4B66" stroke="#4E4B66" stroke-width="0.6158" stroke-miterlimit="10"/>
<path id="Vector_6" d="M37 30.2H31.6V31.7999H37V30.2Z" fill="#4E4B66" stroke="#4E4B66" stroke-width="0.6158" stroke-miterlimit="10"/>
<path id="Vector_7" d="M37 33.2H31.6V34.7999H37V33.2Z" fill="#4E4B66" stroke="#4E4B66" stroke-width="0.6158" stroke-miterlimit="10"/>
<path id="Vector_8" d="M37 33.2H31.6V34.7999H37V33.2Z" fill="#4E4B66" stroke="#4E4B66" stroke-width="0.6158" stroke-miterlimit="10"/>
<path id="Vector_9" d="M37 36.2H31.6V37.7999H37V36.2Z" fill="#4E4B66" stroke="#4E4B66" stroke-width="0.6158" stroke-miterlimit="10"/>
<path id="Vector_10" d="M37 36.2H31.6V37.7999H37V36.2Z" fill="#4E4B66" stroke="#4E4B66" stroke-width="0.6158" stroke-miterlimit="10"/>
<path id="Vector_11" d="M37 39.2H31.6V40.7999H37V39.2Z" fill="#4E4B66" stroke="#4E4B66" stroke-width="0.6158" stroke-miterlimit="10"/>
<path id="Vector_12" d="M37 39.2H31.6V40.7999H37V39.2Z" fill="#4E4B66" stroke="#4E4B66" stroke-width="0.6158" stroke-miterlimit="10"/>
<path id="Vector_13" d="M37 42.2998H31.6V43.8998H37V42.2998Z" fill="#4E4B66" stroke="#4E4B66" stroke-width="0.6158" stroke-miterlimit="10"/>
<path id="Vector_14" d="M37 42.2998H31.6V43.8998H37V42.2998Z" fill="#4E4B66" stroke="#4E4B66" stroke-width="0.6158" stroke-miterlimit="10"/>
<path id="Vector_15" d="M37 45.2998H31.6V46.8998H37V45.2998Z" fill="#4E4B66" stroke="#4E4B66" stroke-width="0.6158" stroke-miterlimit="10"/>
<path id="Vector_16" d="M37 45.2998H31.6V46.8998H37V45.2998Z" fill="#4E4B66" stroke="#4E4B66" stroke-width="0.6158" stroke-miterlimit="10"/>
<path id="Vector_17" d="M37 48.3999H31.6V49.9999H37V48.3999Z" fill="#4E4B66" stroke="#4E4B66" stroke-width="0.6158" stroke-miterlimit="10"/>
<path id="Vector_18" d="M37 48.3999H31.6V49.9999H37V48.3999Z" fill="#4E4B66" stroke="#4E4B66" stroke-width="0.6158" stroke-miterlimit="10"/>
<path id="Vector_19" d="M37 51.5H31.6V53.1H37V51.5Z" fill="#4E4B66" stroke="#4E4B66" stroke-width="0.6158" stroke-miterlimit="10"/>
<path id="Vector_20" d="M37 51.5H31.6V53.1H37V51.5Z" fill="#4E4B66" stroke="#4E4B66" stroke-width="0.6158" stroke-miterlimit="10"/>
<path id="Vector_21" d="M55.1999 20.9999H52.9999V59.1999H55.2999V55.3999C55.2999 54.9999 55.6999 54.5999 56.0999 54.5999H58.3999C59.6999 54.5999 60.6999 53.5999 60.6999 52.2999V27.8999C60.6999 26.6999 59.6999 25.5999 58.3999 25.5999H55.9999C55.5999 25.5999 55.1999 25.1999 55.1999 24.7999V20.9999ZM55.9999 19.3999C56.3999 19.3999 56.7999 19.7999 56.7999 20.1999V23.9999H58.2999C60.3999 23.9999 62.1999 25.6999 62.1999 27.7999V52.2999C62.1999 54.3999 60.4999 56.0999 58.2999 56.0999H56.7999V59.8999C56.7999 60.2999 56.3999 60.6999 55.9999 60.6999H52.0999C51.6999 60.6999 51.2999 60.2999 51.2999 59.8999V20.1999C51.2999 19.7999 51.6999 19.3999 52.0999 19.3999C52.0999 19.3999 55.9999 19.3999 55.9999 19.3999Z" fill="#4E4B66" stroke="#4E4B66" stroke-width="0.6158" stroke-miterlimit="10"/>
<path id="Vector_22" d="M55.1999 20.9999H52.9999V59.1999H55.2999V55.3999C55.2999 54.9999 55.6999 54.5999 56.0999 54.5999H58.3999C59.6999 54.5999 60.6999 53.5999 60.6999 52.2999V27.8999C60.6999 26.6999 59.6999 25.5999 58.3999 25.5999H55.9999C55.5999 25.5999 55.1999 25.1999 55.1999 24.7999V20.9999ZM55.9999 19.3999C56.3999 19.3999 56.7999 19.7999 56.7999 20.1999V23.9999H58.2999C60.3999 23.9999 62.1999 25.6999 62.1999 27.7999V52.2999C62.1999 54.3999 60.4999 56.0999 58.2999 56.0999H56.7999V59.8999C56.7999 60.2999 56.3999 60.6999 55.9999 60.6999H52.0999C51.6999 60.6999 51.2999 60.2999 51.2999 59.8999V20.1999C51.2999 19.7999 51.6999 19.3999 52.0999 19.3999C52.0999 19.3999 55.9999 19.3999 55.9999 19.3999Z" fill="#4E4B66" stroke="#4E4B66" stroke-width="0.6158" stroke-miterlimit="10"/>
<path id="Vector_23" d="M61.4 27H56V28.6H61.4V27Z" fill="#4E4B66" stroke="#4E4B66" stroke-width="0.6158" stroke-miterlimit="10"/>
<path id="Vector_24" d="M61.4 27H56V28.6H61.4V27Z" fill="#4E4B66" stroke="#4E4B66" stroke-width="0.6158" stroke-miterlimit="10"/>
<path id="Vector_25" d="M61.4 30.2H56V31.7999H61.4V30.2Z" fill="#4E4B66" stroke="#4E4B66" stroke-width="0.6158" stroke-miterlimit="10"/>
<path id="Vector_26" d="M61.4 30.2H56V31.7999H61.4V30.2Z" fill="#4E4B66" stroke="#4E4B66" stroke-width="0.6158" stroke-miterlimit="10"/>
<path id="Vector_27" d="M61.4 33.2H56V34.7999H61.4V33.2Z" fill="#4E4B66" stroke="#4E4B66" stroke-width="0.6158" stroke-miterlimit="10"/>
<path id="Vector_28" d="M61.4 33.2H56V34.7999H61.4V33.2Z" fill="#4E4B66" stroke="#4E4B66" stroke-width="0.6158" stroke-miterlimit="10"/>
<path id="Vector_29" d="M61.4 36.2H56V37.7999H61.4V36.2Z" fill="#4E4B66" stroke="#4E4B66" stroke-width="0.6158" stroke-miterlimit="10"/>
<path id="Vector_30" d="M61.4 36.2H56V37.7999H61.4V36.2Z" fill="#4E4B66" stroke="#4E4B66" stroke-width="0.6158" stroke-miterlimit="10"/>
<path id="Vector_31" d="M61.4 39.2H56V40.7999H61.4V39.2Z" fill="#4E4B66" stroke="#4E4B66" stroke-width="0.6158" stroke-miterlimit="10"/>
<path id="Vector_32" d="M61.4 39.2H56V40.7999H61.4V39.2Z" fill="#4E4B66" stroke="#4E4B66" stroke-width="0.6158" stroke-miterlimit="10"/>
<path id="Vector_33" d="M61.4 42.2998H56V43.8998H61.4V42.2998Z" fill="#4E4B66" stroke="#4E4B66" stroke-width="0.6158" stroke-miterlimit="10"/>
<path id="Vector_34" d="M61.4 42.2998H56V43.8998H61.4V42.2998Z" fill="#4E4B66" stroke="#4E4B66" stroke-width="0.6158" stroke-miterlimit="10"/>
<path id="Vector_35" d="M61.4 45.2998H56V46.8998H61.4V45.2998Z" fill="#4E4B66" stroke="#4E4B66" stroke-width="0.6158" stroke-miterlimit="10"/>
<path id="Vector_36" d="M61.4 45.2998H56V46.8998H61.4V45.2998Z" fill="#4E4B66" stroke="#4E4B66" stroke-width="0.6158" stroke-miterlimit="10"/>
<path id="Vector_37" d="M61.4 48.3999H56V49.9999H61.4V48.3999Z" fill="#4E4B66" stroke="#4E4B66" stroke-width="0.6158" stroke-miterlimit="10"/>
<path id="Vector_38" d="M61.4 48.3999H56V49.9999H61.4V48.3999Z" fill="#4E4B66" stroke="#4E4B66" stroke-width="0.6158" stroke-miterlimit="10"/>
<path id="Vector_39" d="M61.4 51.5H56V53.1H61.4V51.5Z" fill="#4E4B66" stroke="#4E4B66" stroke-width="0.6158" stroke-miterlimit="10"/>
<path id="Vector_40" d="M61.4 51.5H56V53.1H61.4V51.5Z" fill="#4E4B66" stroke="#4E4B66" stroke-width="0.6158" stroke-miterlimit="10"/>
<path id="Vector_41" d="M27 30.0999C26.5 30.0999 26.2 30.4999 26.2 30.8999V49.2999C26.2 49.6999 26.6 50.0999 27 50.0999C27.5 50.0999 27.9 49.7999 27.9 49.2999V30.9999C27.9 30.3999 27.5 30.0999 27 30.0999Z" fill="#4E4B66" stroke="#4E4B66" stroke-width="0.6158" stroke-miterlimit="10"/>
<path id="Vector_42" d="M27 30.0999C26.5 30.0999 26.2 30.4999 26.2 30.8999V49.2999C26.2 49.6999 26.6 50.0999 27 50.0999C27.5 50.0999 27.9 49.7999 27.9 49.2999V30.9999C27.9 30.3999 27.5 30.0999 27 30.0999Z" fill="#4E4B66" stroke="#4E4B66" stroke-width="0.6158" stroke-miterlimit="10"/>
<path id="Vector_43" d="M17.9 30.0999C17.4 30.0999 17.1 30.4999 17.1 30.8999V49.2999C17.1 49.6999 17.5 50.0999 17.9 50.0999C18.4 50.0999 18.8 49.7999 18.8 49.2999V30.9999C18.7 30.3999 18.4 30.0999 17.9 30.0999Z" fill="#4E4B66" stroke="#4E4B66" stroke-width="0.6158" stroke-miterlimit="10"/>
<path id="Vector_44" d="M17.9 30.0999C17.4 30.0999 17.1 30.4999 17.1 30.8999V49.2999C17.1 49.6999 17.5 50.0999 17.9 50.0999C18.4 50.0999 18.8 49.7999 18.8 49.2999V30.9999C18.7 30.3999 18.4 30.0999 17.9 30.0999Z" fill="#4E4B66" stroke="#4E4B66" stroke-width="0.6158" stroke-miterlimit="10"/>
<path id="Vector_45" d="M26.9999 31.7H17.7999V33.2999H26.9999V31.7Z" fill="#4E4B66" stroke="#4E4B66" stroke-width="0.6158" stroke-miterlimit="10"/>
<path id="Vector_46" d="M26.9999 31.7H17.7999V33.2999H26.9999V31.7Z" fill="#4E4B66" stroke="#4E4B66" stroke-width="0.6158" stroke-miterlimit="10"/>
<path id="Vector_47" d="M24.7999 32.3999H23.2V47.6999H24.7999V32.3999Z" fill="#4E4B66" stroke="#4E4B66" stroke-width="0.6158" stroke-miterlimit="10"/>
<path id="Vector_48" d="M24.7999 32.3999H23.2V47.6999H24.7999V32.3999Z" fill="#4E4B66" stroke="#4E4B66" stroke-width="0.6158" stroke-miterlimit="10"/>
<path id="Vector_49" d="M21.7999 32.3999H20.2V47.6999H21.7999V32.3999Z" fill="#4E4B66" stroke="#4E4B66" stroke-width="0.6158" stroke-miterlimit="10"/>
<path id="Vector_50" d="M21.7999 32.3999H20.2V47.6999H21.7999V32.3999Z" fill="#4E4B66" stroke="#4E4B66" stroke-width="0.6158" stroke-miterlimit="10"/>
<path id="Vector_51" d="M26.9999 46.8999H17.7999V48.4999H26.9999V46.8999Z" fill="#4E4B66" stroke="#4E4B66" stroke-width="0.6158" stroke-miterlimit="10"/>
<path id="Vector_52" d="M26.9999 46.8999H17.7999V48.4999H26.9999V46.8999Z" fill="#4E4B66" stroke="#4E4B66" stroke-width="0.6158" stroke-miterlimit="10"/>
<path id="Vector_53" d="M33.2 36.2H27V37.7999H33.2V36.2Z" fill="#4E4B66" stroke="#4E4B66" stroke-width="0.6158" stroke-miterlimit="10"/>
<path id="Vector_54" d="M33.2 36.2H27V37.7999H33.2V36.2Z" fill="#4E4B66" stroke="#4E4B66" stroke-width="0.6158" stroke-miterlimit="10"/>
<path id="Vector_55" d="M33.2 42.2998H27V43.8998H33.2V42.2998Z" fill="#4E4B66" stroke="#4E4B66" stroke-width="0.6158" stroke-miterlimit="10"/>
<path id="Vector_56" d="M33.2 42.2998H27V43.8998H33.2V42.2998Z" fill="#4E4B66" stroke="#4E4B66" stroke-width="0.6158" stroke-miterlimit="10"/>
<path id="Vector_57" d="M52.2999 22.5H40.7V24.1H52.2999V22.5Z" fill="#4E4B66" stroke="#4E4B66" stroke-width="0.6158" stroke-miterlimit="10"/>
<path id="Vector_58" d="M52.2999 22.5H40.7V24.1H52.2999V22.5Z" fill="#4E4B66" stroke="#4E4B66" stroke-width="0.6158" stroke-miterlimit="10"/>
<path id="Vector_59" d="M52.2999 56H40.7V57.6H52.2999V56Z" fill="#4E4B66" stroke="#4E4B66" stroke-width="0.6158" stroke-miterlimit="10"/>
<path id="Vector_60" d="M52.2999 56H40.7V57.6H52.2999V56Z" fill="#4E4B66" stroke="#4E4B66" stroke-width="0.6158" stroke-miterlimit="10"/>
<path id="Vector_61" d="M44.5 27.1H48.4V28.6H44.5V27.1ZM44.5 25.5C43.6 25.5 43 26.2 43 27V28.6C43 29.5 43.7 30.1 44.5 30.1H48.4C49.3 30.1 49.9 29.4 49.9 28.6V27.1C49.9 26.2 49.2 25.6 48.4 25.6L44.5 25.5Z" fill="#4E4B66" stroke="#4E4B66" stroke-width="0.6158" stroke-miterlimit="10"/>
<path id="Vector_62" d="M44.5 27.1H48.4V28.6H44.5V27.1ZM44.5 25.5C43.6 25.5 43 26.2 43 27V28.6C43 29.5 43.7 30.1 44.5 30.1H48.4C49.3 30.1 49.9 29.4 49.9 28.6V27.1C49.9 26.2 49.2 25.6 48.4 25.6L44.5 25.5Z" fill="#4E4B66" stroke="#4E4B66" stroke-width="0.6158" stroke-miterlimit="10"/>
<path id="Vector_63" d="M44.5 33.2H48.4V34.7H44.5V33.2ZM44.5 31.7C43.6 31.7 43 32.4 43 33.2V34.7C43 35.6 43.7 36.2 44.5 36.2H48.4C49.3 36.2 49.9 35.5 49.9 34.7V33.2C49.9 32.3 49.2 31.7 48.4 31.7C48.4 31.7 44.5 31.7 44.5 31.7Z" fill="#4E4B66" stroke="#4E4B66" stroke-width="0.6158" stroke-miterlimit="10"/>
<path id="Vector_64" d="M44.5 33.2H48.4V34.7H44.5V33.2ZM44.5 31.7C43.6 31.7 43 32.4 43 33.2V34.7C43 35.6 43.7 36.2 44.5 36.2H48.4C49.3 36.2 49.9 35.5 49.9 34.7V33.2C49.9 32.3 49.2 31.7 48.4 31.7C48.4 31.7 44.5 31.7 44.5 31.7Z" fill="#4E4B66" stroke="#4E4B66" stroke-width="0.6158" stroke-miterlimit="10"/>
<path id="Vector_65" d="M44.5 39.2H48.4V40.7H44.5V39.2ZM44.5 37.7C43.6 37.7 43 38.4 43 39.2V40.7C43 41.6 43.7 42.2 44.5 42.2H48.4C49.3 42.2 49.9 41.5 49.9 40.7V39.2C49.9 38.3 49.2 37.7 48.4 37.7H44.5Z" fill="#4E4B66" stroke="#4E4B66" stroke-width="0.6158" stroke-miterlimit="10"/>
<path id="Vector_66" d="M44.5 39.2H48.4V40.7H44.5V39.2ZM44.5 37.7C43.6 37.7 43 38.4 43 39.2V40.7C43 41.6 43.7 42.2 44.5 42.2H48.4C49.3 42.2 49.9 41.5 49.9 40.7V39.2C49.9 38.3 49.2 37.7 48.4 37.7H44.5Z" fill="#4E4B66" stroke="#4E4B66" stroke-width="0.6158" stroke-miterlimit="10"/>
<path id="Vector_67" d="M44.5 45.3998H48.4V46.8998H44.5V45.3998ZM44.5 43.7998C43.6 43.7998 43 44.4998 43 45.2998V46.7998C43 47.6998 43.7 48.2998 44.5 48.2998H48.4C49.3 48.2998 49.9 47.5998 49.9 46.7998V45.2998C49.9 44.3998 49.2 43.7998 48.4 43.7998H44.5Z" fill="#4E4B66" stroke="#4E4B66" stroke-width="0.6158" stroke-miterlimit="10"/>
<path id="Vector_68" d="M44.5 45.3998H48.4V46.8998H44.5V45.3998ZM44.5 43.7998C43.6 43.7998 43 44.4998 43 45.2998V46.7998C43 47.6998 43.7 48.2998 44.5 48.2998H48.4C49.3 48.2998 49.9 47.5998 49.9 46.7998V45.2998C49.9 44.3998 49.2 43.7998 48.4 43.7998H44.5Z" fill="#4E4B66" stroke="#4E4B66" stroke-width="0.6158" stroke-miterlimit="10"/>
<path id="Vector_69" d="M44.5 51.4999H48.4V52.9999H44.5V51.4999ZM44.5 49.8999C43.6 49.8999 43 50.5999 43 51.3999V52.9999C43 53.8999 43.7 54.4999 44.5 54.4999H48.4C49.3 54.4999 49.9 53.7999 49.9 52.9999V51.4999C49.9 50.5999 49.2 49.9999 48.4 49.9999H44.5V49.8999Z" fill="#4E4B66" stroke="#4E4B66" stroke-width="0.6158" stroke-miterlimit="10"/>
<path id="Vector_70" d="M44.5 51.4999H48.4V52.9999H44.5V51.4999ZM44.5 49.8999C43.6 49.8999 43 50.5999 43 51.3999V52.9999C43 53.8999 43.7 54.4999 44.5 54.4999H48.4C49.3 54.4999 49.9 53.7999 49.9 52.9999V51.4999C49.9 50.5999 49.2 49.9999 48.4 49.9999H44.5V49.8999Z" fill="#4E4B66" stroke="#4E4B66" stroke-width="0.6158" stroke-miterlimit="10"/>
<path id="Vector_71" d="M62.2 21H56V22.6H62.2V21Z" fill="#4E4B66" stroke="#4E4B66" stroke-width="0.6158" stroke-miterlimit="10"/>
<path id="Vector_72" d="M62.2 21H56V22.6H62.2V21Z" fill="#4E4B66" stroke="#4E4B66" stroke-width="0.6158" stroke-miterlimit="10"/>
</g>
<circle id="Ellipse 1" cx="40" cy="40" r="38.5" stroke="#F56E1E" stroke-width="3"/>
</g>
<defs>
<clipPath id="clip0_1261_50551">
<rect width="80" height="80" fill="white"/>
</clipPath>
</defs>
</svg>
