<svg width="28" height="28" viewBox="0 0 28 28" fill="none" xmlns="http://www.w3.org/2000/svg">
<path d="M14 19C16.7614 19 19 16.7614 19 14C19 11.2386 16.7614 9 14 9C11.2386 9 9 11.2386 9 14C9 16.7614 11.2386 19 14 19Z" stroke="#6E7191" stroke-width="2"/>
<path d="M11.9922 2.13747C12.2001 1.79058 12.4943 1.50347 12.8462 1.30412C13.1981 1.10478 13.5956 1 14 1C14.4044 1 14.8019 1.10478 15.1538 1.30412C15.5057 1.50347 15.7999 1.79058 16.0078 2.13747L16.8341 3.51619C17.0922 3.94663 17.4817 4.28273 17.9453 4.47492C18.409 4.66711 18.9221 4.70521 19.409 4.58359L20.9679 4.19268C21.3602 4.09443 21.7713 4.09947 22.161 4.20734C22.5508 4.3152 22.9059 4.52219 23.1919 4.80814C23.4778 5.09409 23.6848 5.44924 23.7927 5.83899C23.9005 6.22874 23.9056 6.63978 23.8073 7.03206L23.4164 8.59102C23.2948 9.07793 23.3329 9.59104 23.5251 10.0547C23.7173 10.5183 24.0534 10.9078 24.4838 11.1659L25.8625 11.9922C26.2094 12.2001 26.4965 12.4943 26.6959 12.8462C26.8952 13.1981 27 13.5956 27 14C27 14.4044 26.8952 14.8019 26.6959 15.1538C26.4965 15.5057 26.2094 15.7999 25.8625 16.0078L24.4838 16.8341C24.0534 17.0922 23.7173 17.4817 23.5251 17.9454C23.3329 18.409 23.2948 18.9221 23.4164 19.409L23.8073 20.9679C23.9056 21.3602 23.9005 21.7713 23.7927 22.161C23.6848 22.5508 23.4778 22.9059 23.1919 23.1919C22.9059 23.4778 22.5508 23.6848 22.161 23.7927C21.7713 23.9005 21.3602 23.9056 20.9679 23.8073L19.409 23.4164C18.9221 23.2948 18.409 23.3329 17.9453 23.5251C17.4817 23.7173 17.0922 24.0534 16.8341 24.4838L16.0078 25.8625C15.7999 26.2094 15.5057 26.4965 15.1538 26.6959C14.8019 26.8952 14.4044 27 14 27C13.5956 27 13.1981 26.8952 12.8462 26.6959C12.4943 26.4965 12.2001 26.2094 11.9922 25.8625L11.1659 24.4838C10.9078 24.0534 10.5183 23.7173 10.0546 23.5251C9.59104 23.3329 9.07793 23.2948 8.59102 23.4164L7.03206 23.8073C6.63978 23.9056 6.22874 23.9005 5.83899 23.7927C5.44924 23.6848 5.09409 23.4778 4.80814 23.1919C4.52219 22.9059 4.3152 22.5508 4.20733 22.161C4.09947 21.7713 4.09442 21.3602 4.19268 20.9679L4.58359 19.409C4.70521 18.9221 4.66711 18.409 4.47492 17.9454C4.28273 17.4817 3.94663 17.0922 3.51619 16.8341L2.13747 16.0078C1.79058 15.7999 1.50347 15.5057 1.30412 15.1538C1.10478 14.8019 1 14.4044 1 14C1 13.5956 1.10478 13.1981 1.30412 12.8462C1.50347 12.4943 1.79058 12.2001 2.13747 11.9922L3.51619 11.1659C3.94663 10.9078 4.28273 10.5183 4.47492 10.0547C4.66711 9.59104 4.70521 9.07793 4.58359 8.59102L4.19151 7.03206C4.09325 6.63978 4.0983 6.22874 4.20616 5.83899C4.31402 5.44924 4.52102 5.09409 4.80697 4.80814C5.09292 4.52219 5.44807 4.3152 5.83782 4.20734C6.22757 4.09947 6.63861 4.09443 7.03089 4.19268L8.58985 4.58359C9.07676 4.70521 9.58987 4.66711 10.0535 4.47492C10.5171 4.28273 10.9067 3.94663 11.1647 3.51619L11.9922 2.13747Z" stroke="#6E7191" stroke-width="2"/>
</svg>
