<svg width="28" height="28" viewBox="0 0 28 28" fill="none" xmlns="http://www.w3.org/2000/svg">
<path d="M22.1665 16.9167H18.6665" stroke="#6E7191" stroke-width="2" stroke-linecap="round" stroke-linejoin="round"/>
<path d="M5.8335 16.9167H8.75016" stroke="#6E7191" stroke-width="2" stroke-linecap="round" stroke-linejoin="round"/>
<path d="M18.5125 3.5H9.48717C9.08424 3.5 8.68817 3.60434 8.33754 3.80286C7.9869 4.00138 7.69365 4.28732 7.48634 4.63283L5.31751 8.24833C5.11896 8.57937 4.83802 8.85332 4.50209 9.04347C4.16616 9.23362 3.78669 9.33348 3.40067 9.33333H2.60851C2.22607 9.33333 1.85929 9.48526 1.58886 9.75569C1.31843 10.0261 1.16651 10.3929 1.16651 10.7753V10.8628C1.16588 11.1049 1.23281 11.3424 1.35978 11.5485C1.48674 11.7546 1.66869 11.9212 1.88517 12.0295C2.06961 12.1216 2.22951 12.2563 2.35168 12.4224C2.47385 12.5885 2.55479 12.7812 2.58784 12.9847C2.62088 13.1882 2.60508 13.3967 2.54174 13.5929C2.47839 13.7891 2.36932 13.9674 2.22351 14.1132L1.70317 14.6335C1.3605 14.9761 1.16753 15.4405 1.16651 15.925V19.0085C1.16653 19.5367 1.37636 20.0432 1.74984 20.4167C2.12332 20.7901 2.33316 21.2967 2.33317 21.8248V22.1667C2.33317 22.7855 2.57901 23.379 3.01659 23.8166C3.45418 24.2542 4.04767 24.5 4.66651 24.5H6.41651C6.88064 24.5 7.32576 24.3156 7.65395 23.9874C7.98213 23.6592 8.16651 23.2141 8.16651 22.75C8.16651 22.2859 8.35088 21.8408 8.67907 21.5126C9.00726 21.1844 9.45238 21 9.91651 21H18.0832C18.5473 21 18.9924 21.1844 19.3206 21.5126C19.6488 21.8408 19.8332 22.2859 19.8332 22.75C19.8332 23.2141 20.0175 23.6592 20.3457 23.9874C20.6739 24.3156 21.119 24.5 21.5832 24.5H23.3332C23.952 24.5 24.5455 24.2542 24.9831 23.8166C25.4207 23.379 25.6665 22.7855 25.6665 22.1667V21.8248C25.6665 21.2967 25.8764 20.7901 26.2498 20.4167C26.6233 20.0432 26.8332 19.5367 26.8332 19.0085V15.925C26.8331 15.4392 26.64 14.9734 26.2965 14.63L25.7762 14.1097C25.6304 13.9639 25.5213 13.7856 25.4579 13.5894C25.3946 13.3932 25.3788 13.1847 25.4118 12.9812C25.4449 12.7777 25.5258 12.585 25.648 12.4189C25.7702 12.2528 25.9301 12.1181 26.1145 12.026C26.331 11.9177 26.5129 11.7511 26.6399 11.545C26.7669 11.3389 26.8338 11.1014 26.8332 10.8593V10.7753C26.8332 10.3929 26.6812 10.0261 26.4108 9.75569C26.1404 9.48526 25.7736 9.33333 25.3912 9.33333H24.599C24.2132 9.33317 23.834 9.23316 23.4983 9.04303C23.1626 8.8529 22.8819 8.57912 22.6833 8.24833L20.5145 4.63167C20.307 4.2862 20.0135 4.00039 19.6626 3.80206C19.3118 3.60374 18.9155 3.49967 18.5125 3.5V3.5Z" stroke="#6E7191" stroke-width="2"/>
</svg>
