<svg width="80" height="80" viewBox="0 0 80 80" fill="none" xmlns="http://www.w3.org/2000/svg">
<g id="icon / product category" clip-path="url(#clip0_1261_50554)">
<path id="Vector" d="M61.2 58H58.0999V56.4001H56.5V58H53.4V51.7001H56.5V54.8H58.0999V51.7001H61.2V58ZM59.5999 62.7001H54.9V59.6H59.5999V62.7001ZM53.7 48.6H60.9L62.5 50.2001H52.2L53.7 48.6ZM60.4 47H54.0999V42.3H60.4V47ZM41.5999 36.1C36.3999 36.1 32.2 31.9 32.2 26.7C32.2 22.2 35.4 18.4 39.7 17.5C40.4 17.4 41.1 17.3 41.9 17.3C47 17.4 51.0999 21.6 51.0999 26.7C51 31.9 46.7999 36.1 41.5999 36.1ZM29.8 40.8H23.5V36.1H29.8V40.8ZM36.0999 43.1V44.7001C36.0999 45.1 35.6999 45.5 35.2999 45.5H18C17.6 45.5 17.2 45.2001 17.2 44.7001V43.1C17.2 42.7 17.6 42.3 18 42.3H35.2999C35.6999 42.3 36.0999 42.7 36.0999 43.1ZM20.1 58L19.3 56.4001H34L33.2 58H20.1ZM31.4 62.7001H29.8V59.6H31.4V62.7001ZM23.5 62.7001H21.9V59.6H23.5V62.7001ZM18.8 47H34.5V54.8H18.8V47ZM64.3 49.8L62 47.5V40.8H58.0999V31.8C58.0999 23 50.8999 15.8 42 15.8C41.9 15.8 41.9 15.8 41.7999 15.8C41.6999 15.8 41.6999 15.8 41.5999 15.8C40.7999 15.8 40.0999 15.9 39.2999 16C31.6999 17.3 25.9 23.9 25.9 31.8V34.5H22V40.8H18.1C16.8 40.8 15.7 41.8 15.7 43.1V44.7001C15.7 45.7001 16.4 46.6001 17.3 46.9001V55.8L19.2 59.5H20.5V64.2H25.2V59.5H28.3V64.2H33V59.5H34.2999L36.2 55.8V46.9001C37.1 46.6001 37.7999 45.7001 37.7999 44.7001V43.1C37.7999 41.8 36.7 40.8 35.4 40.8H31.5V34.5H27.6V31.8C27.6 27.6 29.4 23.9 32.2 21.2C31.3 22.8 30.7 24.7 30.7 26.7C30.7 32.7001 35.6 37.6 41.7 37.6C47.7999 37.6 52.7 32.7001 52.7 26.7C52.7 24.1 51.7999 21.7 50.2 19.8C54.1 22.4 56.5999 26.8 56.5999 31.8V40.8H52.7V47.5L50.2999 49.8V51.7001H51.9V59.5H53.5V64.2H61.4V59.5H63V51.7001H64.5999V49.8H64.3Z" fill="#4E4B66" stroke="#4E4B66" stroke-width="0.5" stroke-miterlimit="10"/>
<path id="Vector_2" d="M61.2 58H58.0999V56.4001H56.5V58H53.4V51.7001H56.5V54.8H58.0999V51.7001H61.2V58ZM59.5999 62.7001H54.9V59.6H59.5999V62.7001ZM53.7 48.6H60.9L62.5 50.2001H52.2L53.7 48.6ZM60.4 47H54.0999V42.3H60.4V47ZM41.5999 36.1C36.3999 36.1 32.2 31.9 32.2 26.7C32.2 22.2 35.4 18.4 39.7 17.5C40.4 17.4 41.1 17.3 41.9 17.3C47 17.4 51.0999 21.6 51.0999 26.7C51 31.9 46.7999 36.1 41.5999 36.1ZM29.8 40.8H23.5V36.1H29.8V40.8ZM36.0999 43.1V44.7001C36.0999 45.1 35.6999 45.5 35.2999 45.5H18C17.6 45.5 17.2 45.2001 17.2 44.7001V43.1C17.2 42.7 17.6 42.3 18 42.3H35.2999C35.6999 42.3 36.0999 42.7 36.0999 43.1ZM20.1 58L19.3 56.4001H34L33.2 58H20.1ZM31.4 62.7001H29.8V59.6H31.4V62.7001ZM23.5 62.7001H21.9V59.6H23.5V62.7001ZM18.8 47H34.5V54.8H18.8V47ZM64.3 49.8L62 47.5V40.8H58.0999V31.8C58.0999 23 50.8999 15.8 42 15.8C41.9 15.8 41.9 15.8 41.7999 15.8C41.6999 15.8 41.6999 15.8 41.5999 15.8C40.7999 15.8 40.0999 15.9 39.2999 16C31.6999 17.3 25.9 23.9 25.9 31.8V34.5H22V40.8H18.1C16.8 40.8 15.7 41.8 15.7 43.1V44.7001C15.7 45.7001 16.4 46.6001 17.3 46.9001V55.8L19.2 59.5H20.5V64.2H25.2V59.5H28.3V64.2H33V59.5H34.2999L36.2 55.8V46.9001C37.1 46.6001 37.7999 45.7001 37.7999 44.7001V43.1C37.7999 41.8 36.7 40.8 35.4 40.8H31.5V34.5H27.6V31.8C27.6 27.6 29.4 23.9 32.2 21.2C31.3 22.8 30.7 24.7 30.7 26.7C30.7 32.7001 35.6 37.6 41.7 37.6C47.7999 37.6 52.7 32.7001 52.7 26.7C52.7 24.1 51.7999 21.7 50.2 19.8C54.1 22.4 56.5999 26.8 56.5999 31.8V40.8H52.7V47.5L50.2999 49.8V51.7001H51.9V59.5H53.5V64.2H61.4V59.5H63V51.7001H64.5999V49.8H64.3Z" fill="#4E4B66" stroke="#4E4B66" stroke-width="0.5" stroke-miterlimit="10"/>
<circle id="Ellipse 1" cx="40" cy="40" r="38.5" stroke="#F56E1E" stroke-width="3"/>
</g>
<defs>
<clipPath id="clip0_1261_50554">
<rect width="80" height="80" fill="white"/>
</clipPath>
</defs>
</svg>
