<svg width="17" height="16" viewBox="0 0 17 16" fill="none" xmlns="http://www.w3.org/2000/svg">
<g id="icon / system">
<path id="&#239;&#133;&#138;" d="M14.7857 0H2.21429C1.25 0 0.5 0.785714 0.5 1.71429V14.2857C0.5 15.25 1.25 16 2.21429 16H14.7857C15.7143 16 16.5 15.25 16.5 14.2857V1.71429C16.5 0.785714 15.7143 0 14.7857 0ZM14.7857 1.14286C15.0714 1.14286 15.3571 1.42857 15.3571 1.71429V14.2857C15.3571 14.6071 15.0714 14.8571 14.7857 14.8571H2.21429C1.89286 14.8571 1.64286 14.6071 1.64286 14.2857V1.71429C1.64286 1.42857 1.89286 1.14286 2.21429 1.14286H14.7857ZM13.5357 4.67857L13.25 4.35714C13.0714 4.21429 12.7857 4.21429 12.6429 4.35714L6.78571 10.1429L4.32143 7.67857C4.17857 7.5 3.89286 7.5 3.71429 7.67857L3.42857 7.96429C3.25 8.14286 3.25 8.39286 3.42857 8.57143L6.5 11.6786C6.64286 11.8214 6.92857 11.8214 7.10714 11.6786L13.5357 5.28571C13.7143 5.10714 13.7143 4.82143 13.5357 4.67857Z" fill="#F56E1E"/>
<rect x="1" y="0.5" width="15" height="15" stroke="#F56E1E"/>
</g>
</svg>
