<svg width="20" height="21" viewBox="0 0 20 21" fill="none" xmlns="http://www.w3.org/2000/svg">
<path d="M9.14602 17.371C10.7058 17.371 12.2305 16.9085 13.5274 16.0419C14.8243 15.1754 15.8351 13.9437 16.432 12.5027C17.0289 11.0617 17.185 9.47602 16.8807 7.94623C16.5764 6.41645 15.8253 5.01126 14.7224 3.90834C13.6195 2.80543 12.2143 2.05434 10.6845 1.75005C9.15476 1.44575 7.5691 1.60193 6.12808 2.19882C4.68705 2.79571 3.45539 3.80651 2.58884 5.1034C1.72229 6.40029 1.25977 7.92501 1.25977 9.48476C1.25977 11.5763 2.09064 13.5822 3.56959 15.0612C5.04855 16.5401 7.05445 17.371 9.14602 17.371V17.371Z" stroke="#A0A3BC" stroke-width="2" stroke-linecap="round" stroke-linejoin="round"/>
<path d="M18.7865 19.1247L14.814 15.1522" stroke="#A0A3BC" stroke-width="2" stroke-linecap="round" stroke-linejoin="round"/>
</svg>
