<svg width="80" height="80" viewBox="0 0 80 80" fill="none" xmlns="http://www.w3.org/2000/svg">
<g id="icon / product category" clip-path="url(#clip0_1261_50557)">
<path id="Vector" d="M27.1 33.1001C26.5 33.1001 25.9 32.6001 25.9 32.0001C25.9 31.4001 26.4 30.9001 27.1 30.9001H30.6C31.2 30.9001 31.7999 31.4001 31.7999 32.0001C31.7999 32.6001 31.3 33.1001 30.6 33.1001H27.1ZM28.2999 28.5001C27.5999 28.5001 27.1 28.0001 27.1 27.4001C27.1 26.8001 27.5999 26.3001 28.2999 26.3001H30.6C31.2 26.3001 31.7999 26.8001 31.7999 27.4001C31.7999 28.0001 31.3 28.5001 30.6 28.5001H28.2999ZM27.1 23.9001C26.5 23.9001 25.9 23.4001 25.9 22.8001C25.9 22.2001 26.4 21.6001 27.1 21.6001H30.6C31.2 21.6001 31.7999 22.1001 31.7999 22.8001C31.7999 23.4001 31.3 23.9001 30.6 23.9001H27.1ZM40 56.1001C41.2999 56.1001 42.2999 55.1001 42.2999 53.8001C42.2999 52.5001 41.2 51.5001 40 51.5001C38.7 51.5001 37.7 52.5001 37.7 53.8001C37.7 55.1001 38.7 56.1001 40 56.1001ZM38.7999 49.3001V42.3001C38.7999 41.7001 39.2999 41.2001 40 41.2001C40.6 41.2001 41.2 41.7001 41.2 42.3001V49.3001C43.2 49.8001 44.7 51.6001 44.7 53.8001C44.7 56.3001 42.6 58.4001 40 58.4001C37.4 58.4001 35.2999 56.3001 35.2999 53.8001C35.2999 51.7001 36.7999 49.9001 38.7999 49.3001ZM36.5 35.4001C36.5 36.0001 35.9999 36.5001 35.2999 36.5001C34.5999 36.5001 34.0999 36.0001 34.0999 35.4001V22.8001C34.0999 19.6001 36.7 17.1001 40 17.1001C43.2 17.1001 45.9 19.7001 45.9 22.8001V26.2001C45.9 26.8001 45.4 27.3001 44.7 27.3001C44 27.3001 43.5 26.8001 43.5 26.2001V22.8001C43.5 20.9001 41.9 19.3001 40 19.3001C38.1 19.3001 36.5 20.8001 36.5 22.8001V35.4001ZM49.4 53.8001C49.4 58.9001 45.2 63.0001 40 63.0001C34.8 63.0001 30.6 58.9001 30.6 53.8001C30.6 50.8001 32.0999 48.0001 34.5999 46.3001C35.0999 45.9001 35.9 46.1001 36.2 46.6001C36.6 47.1001 36.4 47.8001 35.9 48.2001C34 49.5001 32.9 51.6001 32.9 53.9001C32.9 57.7001 36.1 60.8001 39.9 60.8001C43.8 60.8001 46.9 57.7001 46.9 53.9001C46.9 51.6001 45.8 49.5001 43.9 48.2001C43.6 48.0001 43.4 47.6001 43.4 47.3001V37.8001C43.4 37.2001 43.8999 36.6001 44.5999 36.6001C45.1999 36.6001 45.7999 37.1001 45.7999 37.8001V46.7001C48.0999 48.3001 49.4 51.0001 49.4 53.8001ZM30.2999 47.7001C29.9999 47.9001 29.7 48.0001 29.4 48.0001H22.4C21.8 48.0001 21.2 47.5001 21.2 46.9001C21.2 46.3001 21.7 45.8001 22.4 45.8001H29L49.7999 25.4001C50 25.2001 50.2999 25.1001 50.5999 25.1001H57.5999C58.1999 25.1001 58.7999 25.6001 58.7999 26.2001C58.7999 26.8001 58.2999 27.3001 57.5999 27.3001H51L30.2999 47.7001Z" fill="#4E4B66"/>
<circle id="Ellipse 1" cx="40" cy="40" r="38.5" stroke="#F56E1E" stroke-width="3"/>
</g>
<defs>
<clipPath id="clip0_1261_50557">
<rect width="80" height="80" fill="white"/>
</clipPath>
</defs>
</svg>
